<?xml version="1.0" encoding="utf-8"?>
<!-- Generator: Adobe Illustrator 16.0.4, SVG Export Plug-In . SVG Version: 6.00 Build 0)  -->
<!DOCTYPE svg PUBLIC "-//W3C//DTD SVG 1.1//EN" "http://www.w3.org/Graphics/SVG/1.1/DTD/svg11.dtd">
<svg version="1.1" id="レイヤー_1" xmlns="http://www.w3.org/2000/svg" xmlns:xlink="http://www.w3.org/1999/xlink" x="0px"
	 y="0px" width="188.736px" height="148.586px" viewBox="0 0 188.736 148.586" enable-background="new 0 0 188.736 148.586"
	 xml:space="preserve">
<path fill="#D7D7D7" d="M0,0h11.88l7.903,30.66L27.991,0h10.269l8.207,30.66L54.371,0h11.88L51.939,48.586H41.096l-7.971-27.814
	l-7.972,27.814H14.312L0,0z"/>
<path fill="#D7D7D7" d="M68.823,48.023V0h33.469v10.09H81.198v8.859h18.316v10.09H81.198v8.895h21.094v10.09H68.823z"/>
<path fill="#EAE024" d="M0.62,98.047V50.023h12.164l11.32,16.348l11.284-16.348h12.165v48.023H35.178V68.305L24.104,84.23
	L12.995,68.305v29.742H0.62z"/>
<path fill="#EAE024" d="M47.772,98.023L66.862,50h11.672l19.055,48.023H84.264l-3.727-11.531H64.823l-3.727,11.531H47.772z
	 M67.776,77.352h9.738l-4.816-14.906L67.776,77.352z"/>
<path fill="#EAE024" d="M97.358,98.023V50h12.375v16.91L122.917,50h16.699l-18.844,20.883l20.215,27.141h-15.609L113.143,79.32
	l-3.41,3.797v14.906H97.358z"/>
<path fill="#EAE024" d="M141.268,98.023V50h33.468v10.09h-21.093v8.859h18.315v10.09h-18.315v8.895h21.093v10.09H141.268z"/>
<path fill="#D7D7D7" d="M-0.38,148.586l19.09-48.023h11.672l19.055,48.023H36.112l-3.727-11.531H16.67l-3.727,11.531H-0.38z
	 M19.624,127.914h9.738l-4.816-14.906L19.624,127.914z"/>
<path fill="#D7D7D7" d="M53.698,148.586v-48.023h19.477c5.823,0,10.344,1.477,13.561,4.43s4.826,7.09,4.826,12.41
	c0,5.334-1.61,9.469-4.83,12.403c-3.221,2.934-7.744,4.401-13.572,4.401h-7.086v14.379H53.698z M66.073,124.117h5.906
	c2.483,0,4.307-0.662,5.467-1.986c1.16-1.323,1.74-2.9,1.74-4.729c0-1.78-0.575-3.352-1.723-4.711
	c-1.148-1.359-2.977-2.039-5.484-2.039h-5.906V124.117z"/>
<path fill="#D7D7D7" d="M96.702,148.586v-48.023h19.477c5.823,0,10.344,1.477,13.561,4.43s4.826,7.09,4.826,12.41
	c0,5.334-1.61,9.469-4.83,12.403c-3.221,2.934-7.744,4.401-13.572,4.401h-7.086v14.379H96.702z M109.077,124.117h5.906
	c2.483,0,4.307-0.662,5.467-1.986c1.16-1.323,1.74-2.9,1.74-4.729c0-1.78-0.575-3.352-1.723-4.711
	c-1.148-1.359-2.977-2.039-5.484-2.039h-5.906V124.117z"/>
<path fill="#D7D7D7" d="M140.248,114.446c0-4.933,1.705-8.644,5.115-11.134c3.41-2.489,7.634-3.734,12.674-3.734
	c4.57,0,8.882,1.094,12.938,3.283v10.771c-3.891-2.314-7.606-3.472-11.145-3.472c-1.876,0-3.546,0.312-5.01,0.939
	c-1.465,0.625-2.197,1.659-2.197,3.099c0,0.922,0.539,1.689,1.617,2.303c1.077,0.615,2.448,1.075,4.113,1.382
	c1.664,0.308,3.439,0.815,5.326,1.523c1.886,0.708,3.661,1.57,5.326,2.585c1.664,1.017,3.035,2.587,4.113,4.712
	c1.077,2.126,1.617,4.712,1.617,7.759c0,4.185-1.683,7.585-5.045,10.201c-3.363,2.615-7.448,3.923-12.252,3.923
	c-6.587,0-12.129-1.538-16.629-4.614v-11.529c4.43,3.707,9.339,5.562,14.73,5.562c0.022,0,0.058,0,0.105,0
	c1.828,0,3.404-0.349,4.729-1.045c1.323-0.696,1.986-1.694,1.986-2.993c0-0.874-0.41-1.617-1.23-2.232
	c-0.821-0.613-1.887-1.098-3.199-1.452l-4.289-1.099c-1.547-0.377-3.111-0.908-4.693-1.594c-1.582-0.685-3.019-1.522-4.307-2.515
	c-1.289-0.992-2.344-2.397-3.164-4.216C140.657,119.04,140.248,116.903,140.248,114.446z"/>
<path fill="#D7D7D7" d="M178.366,148.586v-10.09h10.37v10.09H178.366z"/>
</svg>
