<?xml version="1.0" encoding="utf-8"?>
<!-- Generator: Adobe Illustrator 16.0.4, SVG Export Plug-In . SVG Version: 6.00 Build 0)  -->
<!DOCTYPE svg PUBLIC "-//W3C//DTD SVG 1.1//EN" "http://www.w3.org/Graphics/SVG/1.1/DTD/svg11.dtd">
<svg version="1.1" id="レイヤー_1" xmlns="http://www.w3.org/2000/svg" xmlns:xlink="http://www.w3.org/1999/xlink" x="0px"
	 y="0px" width="259px" height="76px" viewBox="0 0 259 76" enable-background="new 0 0 259 76" xml:space="preserve">
<g>
	<path fill="#444444" d="M14.382,26.867v14.524h19.6v10.271h-19.6v22.317H1V16.632h36.602v10.234H14.382z"/>
	<path fill="#444444" d="M75.97,53.283c0,3.201-0.399,6.113-1.199,8.737c-0.802,2.626-2.008,4.874-3.621,6.751
		c-1.615,1.875-3.641,3.332-6.082,4.369c-2.439,1.035-5.315,1.552-8.619,1.552c-1.499,0-4.68-0.077-6.136-0.234
		c-1.457-0.157-3.729-0.419-5.306-0.788V61.771c0,0,9.433,1.132,12.631,0.184c1.488-0.44,3.281-1.449,3.797-3.438
		c0.345-1.329,0.472-2.991,0.472-4.959V16.72H75.97V53.283z"/>
	<path fill="#444444" d="M257.498,46.002c0,4.148-0.652,7.971-1.961,11.475c-1.308,3.504-3.146,6.534-5.521,9.092
		c-2.376,2.559-5.242,4.552-8.585,5.982c-3.349,1.432-7.061,2.145-11.456,2.145h-17.561V17.352h17.561
		c4.396,0,8.107,0.722,11.456,2.163c3.343,1.442,6.209,3.438,8.585,5.981c2.376,2.547,4.214,5.569,5.521,9.073
		C256.846,38.071,257.498,41.885,257.498,46.002z M244.099,46.002c0-2.832-0.335-5.391-1.011-7.671
		c-0.669-2.286-1.635-4.221-2.895-5.808c-1.258-1.588-2.802-2.808-4.624-3.659c-1.824-0.853-3.898-1.28-6.227-1.28h-4.364v36.878
		h4.364c2.328,0,4.402-0.425,6.227-1.28c1.822-0.852,3.366-2.07,4.624-3.659c1.26-1.585,2.226-3.522,2.895-5.804
		C243.764,51.435,244.099,48.864,244.099,46.002z"/>
	<path fill="#444444" d="M142.717,45.531c0,4.232-0.625,8.168-1.871,11.81c-1.244,3.642-2.998,6.806-5.264,9.497
		c-2.264,2.691-6.187,8.613-18.164,8.613c-10.15,0-15.94-5.922-18.216-8.613s-4.035-5.855-5.281-9.497s-1.87-7.577-1.87-11.81
		c0-4.229,0.624-8.164,1.87-11.805c1.247-3.639,3.006-6.799,5.281-9.478c2.275-2.676,7.196-8.594,18.216-8.594
		c10.951,0,15.9,5.956,18.164,8.635c2.266,2.676,4.02,5.834,5.264,9.477C142.092,37.409,142.717,41.33,142.717,45.531z
		 M130.534,45.531c0-2.89-0.322-5.495-0.962-7.809c-0.639-2.315-1.562-4.278-2.761-5.883c-1.199-1.608-4.29-4.976-9.394-4.981
		c-5.092-0.005-7.945,3.373-9.145,4.981c-1.202,1.605-2.121,3.567-2.762,5.883c-0.64,2.314-0.961,4.919-0.961,7.809
		c0,2.919,0.322,5.54,0.961,7.855c0.641,2.312,1.56,4.274,2.762,5.881c1.2,1.608,4.289,4.946,9.145,4.941
		c4.866-0.007,8.194-3.333,9.394-4.941c1.199-1.606,2.122-3.568,2.761-5.881C130.212,51.071,130.534,48.45,130.534,45.531z"/>
	<g>
		<path fill="#444444" d="M104.337,6.415c0-1.528,0.488-2.812,1.458-3.854c0.97-1.041,2.221-1.562,3.75-1.562
			c1.526,0,2.778,0.521,3.751,1.562c0.97,1.042,1.456,2.326,1.456,3.854c0,1.528-0.486,2.812-1.456,3.854
			c-0.973,1.041-2.225,1.562-3.751,1.562c-1.528,0-2.78-0.521-3.75-1.562C104.825,9.227,104.337,7.943,104.337,6.415z"/>
		<path fill="#444444" d="M121,6.415c0-1.528,0.486-2.812,1.458-3.854C123.43,1.521,124.68,1,126.207,1
			c1.529,0,2.779,0.521,3.752,1.562c0.971,1.042,1.457,2.326,1.457,3.854c0,1.528-0.486,2.812-1.457,3.854
			c-0.973,1.041-2.223,1.562-3.752,1.562c-1.527,0-2.777-0.521-3.749-1.562C121.486,9.227,121,7.943,121,6.415z"/>
	</g>
	<g>
		<path fill="#444444" d="M184.817,74.957l-10.858-21.373h-7.04v21.373h-12.146V15.654h19.792c3.011,0,5.833,0.305,8.471,0.91
			c2.634,0.608,4.936,1.623,6.906,3.047c1.97,1.424,3.534,3.319,4.691,5.685c1.159,2.363,1.739,5.307,1.739,8.823
			c0,4.365-0.915,7.958-2.737,10.777c-1.826,2.82-4.273,4.928-7.343,6.322l12.857,23.738H184.817z M166.919,42.939h6.605
			c3.358,0,5.922-0.738,7.687-2.227c1.768-1.484,2.649-3.683,2.649-6.593c0-2.912-0.882-4.942-2.649-6.096
			c-1.765-1.15-4.328-1.729-7.687-1.729h-6.605V42.939z"/>
	</g>
</g>
</svg>
